# xmcd CD database file
#
# Track frame offsets:
#	150
#	20523
#	35571
#	55569
#	70992
#	95790
#	112038
#	132486
#	152109
#	174657
#
# Disc length: 2658 seconds
#
# Revision: 0
# Processed by: cddbd v1.5.2PL0 Copyright (c) Steve Scherf et al.
# Submitted via: CDex 1.51
#
DISCID=8c0a600a
DTITLE=Sam Lewis - Sam Lewis
DYEAR=1900
DGENRE=Blues
TTITLE0=The cross I wear
TTITLE1=In my dreams
TTITLE2=I'm a river
TTITLE3=Southern greek tragedy
TTITLE4=The don't drop in
TTITLE5=Down to the wire
TTITLE6=Mid July
TTITLE7=Bluesday Night
TTITLE8=Equal love
TTITLE9=Runaway bride
EXTD=
EXTT0=
EXTT1=
EXTT2=
EXTT3=
EXTT4=
EXTT5=
EXTT6=
EXTT7=
EXTT8=
EXTT9=
PLAYORDER=
